<?xml version="1.0" standalone="no"?>
<svg viewBox="0 0 200 200" xmlns="http://www.w3.org/2000/svg">
  <path fill="#0000FF" d="M32.7,-54.4C47,-48.5,66.2,-48.9,75.3,-40.9C84.4,-32.9,83.4,-16.4,82.8,-0.4C82.1,15.7,81.8,31.4,74.5,42.4C67.1,53.5,52.7,59.9,39.1,61.1C25.5,62.3,12.8,58.2,-0.5,59C-13.7,59.8,-27.3,65.4,-41.3,64.5C-55.3,63.5,-69.6,56,-72.2,44.1C-74.8,32.3,-65.7,16.1,-65.3,0.2C-64.9,-15.7,-73.3,-31.5,-72.1,-45.6C-70.8,-59.7,-59.9,-72.3,-46.3,-78.6C-32.7,-84.8,-16.3,-84.7,-3.5,-78.6C9.3,-72.5,18.5,-60.3,32.7,-54.4Z" transform="translate(100 100)" />
</svg>
